<svg xmlns="http://www.w3.org/2000/svg" aria-hidden="true">
  <defs>
    <symbol id="icon-antenna" viewBox="0 0 64 64">
      <path d="M32 44a14 14 0 1 1 9.9-23.9l-4.3 4.3A8 8 0 1 0 40 30h6a14 14 0 0 1-14 14Z" />
      <path d="M18.6 16.5 14.4 12.3A24.5 24.5 0 0 1 32 5a24.5 24.5 0 0 1 17.6 7.3l-4.2 4.2A18.6 18.6 0 0 0 32 11a18.6 18.6 0 0 0-13.4 5.5ZM49.7 52H14.3l6.3-14h6.6l-3.6 8h16.8l-3.6-8h6.6l6.3 14ZM29 44h6v12h-6z" />
    </symbol>
    <symbol id="icon-clock" viewBox="0 0 64 64">
      <path d="M32 58a26 26 0 1 1 0-52 26 26 0 0 1 0 52Zm0-6a20 20 0 1 0 0-40 20 20 0 0 0 0 40Z" />
      <path d="M35 18h-6v17l14 8 3-5-11-6V18Z" />
    </symbol>
    <symbol id="icon-diagram" viewBox="0 0 64 64">
      <path d="M10 44h10v12H10zM27 30h10v26H27zM44 18h10v38H44zM14 31.8l14-14 9 9 14-14 4.2 4.2L37 35.2l-9-9-9.8 9.8H26v6H8v-18h6v8Z" />
    </symbol>
    <symbol id="icon-astronaut" viewBox="0 0 64 64">
      <path d="M32 7a17 17 0 0 0-17 17v10a17 17 0 0 0 34 0V24A17 17 0 0 0 32 7Zm0 6a11 11 0 0 1 11 11v3H21v-3a11 11 0 0 1 11-11Zm0 32a11 11 0 0 1-11-11v-1h22v1a11 11 0 0 1-11 11Z" />
      <path d="M12 28H7v13a9 9 0 0 0 9 9h5v-6h-5a3 3 0 0 1-3-3V28ZM57 28h-5v16h-5v6h5a9 9 0 0 0 9-9V28h-4ZM24 56h16v-6H24v6Z" />
    </symbol>
    <symbol id="icon-instagram" viewBox="0 0 24 24">
      <path d="M17 2H7a5 5 0 0 0-5 5v10a5 5 0 0 0 5 5h10a5 5 0 0 0 5-5V7a5 5 0 0 0-5-5Zm3 15a3 3 0 0 1-3 3H7a3 3 0 0 1-3-3V7a3 3 0 0 1 3-3h10a3 3 0 0 1 3 3v10Z" />
      <path d="M12 7a5 5 0 1 0 0 10 5 5 0 0 0 0-10Zm0 8a3 3 0 1 1 0-6 3 3 0 0 1 0 6ZM17.5 6.5a1 1 0 1 1-2 0 1 1 0 0 1 2 0Z" />
    </symbol>
    <symbol id="icon-twitter" viewBox="0 0 24 24">
      <path d="M22 5.8c-.7.3-1.5.6-2.4.7.9-.5 1.5-1.3 1.8-2.3-.8.5-1.7.9-2.7 1.1A4.1 4.1 0 0 0 11.6 9c0 .3 0 .6.1.9A11.7 11.7 0 0 1 3.2 5.6a4.2 4.2 0 0 0 1.3 5.6c-.7 0-1.3-.2-1.9-.5v.1a4.1 4.1 0 0 0 3.3 4.1c-.4.1-.7.2-1.1.2-.3 0-.5 0-.8-.1a4.2 4.2 0 0 0 3.9 2.9A8.3 8.3 0 0 1 2 19.5 11.7 11.7 0 0 0 8.3 21c7.5 0 11.7-6.2 11.7-11.7v-.5c.8-.6 1.5-1.3 2-2Z" />
    </symbol>
    <symbol id="icon-facebook" viewBox="0 0 24 24">
      <path d="M14 8h3V4h-3c-3.3 0-5 2-5 5v3H6v4h3v8h4v-8h3.2l.8-4h-4V9c0-.7.3-1 1-1Z" />
    </symbol>
    <symbol id="icon-linkedin" viewBox="0 0 24 24">
      <path d="M6.9 8.8H3V21h3.9V8.8ZM5 3a2.2 2.2 0 1 0 0 4.4A2.2 2.2 0 0 0 5 3ZM21 14.3c0-3.3-1.8-5.8-4.9-5.8-1.7 0-2.9.9-3.5 1.8V8.8H8.8V21h3.9v-6.2c0-1.6.8-2.7 2.3-2.7 1.3 0 2.1.9 2.1 2.7V21H21v-6.7Z" />
    </symbol>
  </defs>
</svg>
